<?xml version="1.0" encoding="UTF-8" standalone="no"?>
<svg
   xmlns:dc="http://purl.org/dc/elements/1.1/"
   xmlns:cc="http://creativecommons.org/ns#"
   xmlns:rdf="http://www.w3.org/1999/02/22-rdf-syntax-ns#"
   xmlns:svg="http://www.w3.org/2000/svg"
   xmlns="http://www.w3.org/2000/svg"
   xml:space="preserve"
   viewBox="0 0 40.011391 31.056855"
   height="31.056854"
   width="40.011391"
   y="0px"
   x="0px"
   id="Capa_1"
   version="1.1"><metadata
     id="metadata497"><rdf:RDF><cc:Work
         rdf:about=""><dc:format>image/svg+xml</dc:format><dc:type
           rdf:resource="http://purl.org/dc/dcmitype/StillImage" /><dc:title></dc:title></cc:Work></rdf:RDF></metadata><defs
     id="defs495" /><g
     transform="translate(2.0161436,2.3232827)"
     id="g462" /><g
     transform="translate(2.0161436,2.3232827)"
     id="g464" /><g
     transform="translate(2.0161436,2.3232827)"
     id="g466" /><g
     transform="translate(2.0161436,2.3232827)"
     id="g468" /><g
     transform="translate(2.0161436,2.3232827)"
     id="g470" /><g
     transform="translate(2.0161436,2.3232827)"
     id="g472" /><g
     transform="translate(2.0161436,2.3232827)"
     id="g474" /><g
     transform="translate(2.0161436,2.3232827)"
     id="g476" /><g
     transform="translate(2.0161436,2.3232827)"
     id="g478" /><g
     transform="translate(2.0161436,2.3232827)"
     id="g480" /><g
     transform="translate(2.0161436,2.3232827)"
     id="g482" /><g
     transform="translate(2.0161436,2.3232827)"
     id="g484" /><g
     transform="translate(2.0161436,2.3232827)"
     id="g486" /><g
     transform="translate(2.0161436,2.3232827)"
     id="g488" /><g
     transform="translate(2.0161436,2.3232827)"
     id="g490" /><g
     transform="matrix(0.40691343,0,0,0.40691343,0,-4.4768616)"
     id="g288"><g
       id="g286"><path
         id="path280"
         d="m 73.229,45.588 c -4.565,2.174 -8.287,8.774 -12.641,4.419 -2.646,-2.872 -5.785,-7.441 -9.392,-12.609 -3.9,-5.556 -8.872,-10.333 -14.722,-4.875 -6.531,6.143 -11.017,22.813 -11.406,31.392 l 61.711,0.021 C 85.367,58.895 79.882,42.42 73.229,45.588 Z" /><circle
         id="circle282"
         r="7.5879998"
         cy="28.32"
         cx="72.941002" /><path
         id="path284"
         d="M 96.072,11.002 H 15.777 c -1.245,0 -2.256,1.01 -2.256,2.255 V 24.663 H 2.256 C 1.011,24.664 0,25.673 0,26.918 V 85.07 c 0,1.246 1.011,2.255 2.256,2.255 h 80.295 c 1.245,0 2.256,-1.011 2.256,-2.255 V 73.666 h 11.266 c 1.244,0 2.256,-1.01 2.256,-2.255 V 13.257 c -10e-4,-1.244 -1.013,-2.255 -2.257,-2.255 z m -17.32,70.27 H 6.055 V 30.719 h 7.466 v 35.148 c -1.133,4.377 -1.831,8.583 -1.973,11.712 l 61.712,0.02 c -0.271,-0.964 -0.693,-2.35 -1.242,-3.933 h 6.734 z M 92.273,67.61 H 19.576 V 17.058 h 72.697 z" /></g></g></svg>