<?xml version="1.0" encoding="UTF-8" standalone="no"?>
<svg
   xmlns:dc="http://purl.org/dc/elements/1.1/"
   xmlns:cc="http://creativecommons.org/ns#"
   xmlns:rdf="http://www.w3.org/1999/02/22-rdf-syntax-ns#"
   xmlns:svg="http://www.w3.org/2000/svg"
   xmlns="http://www.w3.org/2000/svg"
   xml:space="preserve"
   viewBox="0 0 34.000001 35.771059"
   height="35.771057"
   width="34"
   y="0px"
   x="0px"
   id="Capa_1"
   version="1.1"><metadata
     id="metadata497"><rdf:RDF><cc:Work
         rdf:about=""><dc:format>image/svg+xml</dc:format><dc:type
           rdf:resource="http://purl.org/dc/dcmitype/StillImage" /><dc:title></dc:title></cc:Work></rdf:RDF></metadata><defs
     id="defs495" /><g
     transform="translate(-89.791176,-0.3125897)"
     id="g462" /><g
     transform="translate(-89.791176,-0.3125897)"
     id="g464" /><g
     transform="translate(-89.791176,-0.3125897)"
     id="g466" /><g
     transform="translate(-89.791176,-0.3125897)"
     id="g468" /><g
     transform="translate(-89.791176,-0.3125897)"
     id="g470" /><g
     transform="translate(-89.791176,-0.3125897)"
     id="g472" /><g
     transform="translate(-89.791176,-0.3125897)"
     id="g474" /><g
     transform="translate(-89.791176,-0.3125897)"
     id="g476" /><g
     transform="translate(-89.791176,-0.3125897)"
     id="g478" /><g
     transform="translate(-89.791176,-0.3125897)"
     id="g480" /><g
     transform="translate(-89.791176,-0.3125897)"
     id="g482" /><g
     transform="translate(-89.791176,-0.3125897)"
     id="g484" /><g
     transform="translate(-89.791176,-0.3125897)"
     id="g486" /><g
     transform="translate(-89.791176,-0.3125897)"
     id="g488" /><g
     transform="translate(-89.791176,-0.3125897)"
     id="g490" /><g
     id="g1425"
     transform="matrix(0.08792868,0,0,0.08792868,-0.88552974,0)"><path
       id="path1423"
       d="m 36.01,406.819 h 334.816 c 14.258,0 25.922,-11.656 25.922,-25.906 V 25.906 C 396.748,11.689 385.075,0 370.826,0 H 36.01 C 21.72,0 10.071,11.689 10.071,25.906 v 355.007 c 0,14.25 11.649,25.906 25.939,25.906 z M 333.515,31.693 c 0,-4.3 3.52,-7.771 7.779,-7.771 h 24.304 c 4.292,0 7.763,3.471 7.763,7.771 v 25.028 c 0,4.3 -3.471,7.771 -7.763,7.771 h -24.304 c -4.259,0 -7.779,-3.463 -7.779,-7.771 z m 0,63.671 c 0,-4.3 3.52,-7.779 7.779,-7.779 h 24.304 c 4.292,0 7.763,3.479 7.763,7.779 v 25.028 c 0,4.292 -3.471,7.795 -7.763,7.795 h -24.304 c -4.259,0 -7.779,-3.503 -7.779,-7.795 z m 0,63.72 c 0,-4.292 3.52,-7.795 7.779,-7.795 h 24.304 c 4.292,0 7.763,3.503 7.763,7.795 v 25.036 c 0,4.259 -3.471,7.763 -7.763,7.763 h -24.304 c -4.259,0 -7.779,-3.503 -7.779,-7.763 z m 0,63.671 c 0,-4.3 3.52,-7.795 7.779,-7.795 h 24.304 c 4.292,0 7.763,3.495 7.763,7.795 v 25.036 c 0,4.292 -3.471,7.771 -7.763,7.771 h -24.304 c -4.259,0 -7.779,-3.479 -7.779,-7.771 z m 0,63.672 c 0,-4.3 3.52,-7.771 7.779,-7.771 h 24.304 c 4.292,0 7.763,3.463 7.763,7.771 v 25.052 c 0,4.276 -3.471,7.755 -7.763,7.755 h -24.304 c -4.259,0 -7.779,-3.479 -7.779,-7.755 z m 0,63.671 c 0,-4.276 3.52,-7.771 7.779,-7.771 h 24.304 c 4.292,0 7.763,3.495 7.763,7.771 v 25.077 c 0,4.243 -3.471,7.755 -7.763,7.755 h -24.304 c -4.259,0 -7.779,-3.503 -7.779,-7.755 z M 99.981,50.478 c 0,-4.3 3.503,-7.771 7.795,-7.771 h 191.298 c 4.268,0 7.763,3.471 7.763,7.771 v 123.945 c 0,4.259 -3.495,7.795 -7.763,7.795 H 107.777 c -4.292,0 -7.795,-3.536 -7.795,-7.795 -0.001,0 -0.001,-123.945 -0.001,-123.945 z m 0,191.12 c 0,-4.268 3.503,-7.747 7.795,-7.747 h 191.298 c 4.268,0 7.763,3.479 7.763,7.747 V 356.17 c 0,4.276 -3.495,7.771 -7.763,7.771 H 107.777 c -4.292,0 -7.795,-3.495 -7.795,-7.771 -0.001,0 -0.001,-114.572 -0.001,-114.572 z M 33.457,31.693 c 0,-4.3 3.495,-7.771 7.779,-7.771 h 24.313 c 4.268,0 7.755,3.471 7.755,7.771 v 25.028 c 0,4.3 -3.487,7.771 -7.755,7.771 H 41.236 c -4.284,0 -7.779,-3.463 -7.779,-7.771 0,0 0,-25.028 0,-25.028 z m 0,63.671 c 0,-4.3 3.495,-7.779 7.779,-7.779 h 24.313 c 4.268,0 7.755,3.479 7.755,7.779 v 25.028 c 0,4.292 -3.487,7.795 -7.755,7.795 H 41.236 c -4.284,0 -7.779,-3.503 -7.779,-7.795 0,0 0,-25.028 0,-25.028 z m 0,63.72 c 0,-4.292 3.495,-7.795 7.779,-7.795 h 24.313 c 4.268,0 7.755,3.503 7.755,7.795 v 25.036 c 0,4.259 -3.487,7.763 -7.755,7.763 H 41.236 c -4.284,0 -7.779,-3.503 -7.779,-7.763 0,0 0,-25.036 0,-25.036 z m 0,63.671 c 0,-4.3 3.495,-7.795 7.779,-7.795 h 24.313 c 4.268,0 7.755,3.495 7.755,7.795 v 25.036 c 0,4.292 -3.487,7.771 -7.755,7.771 H 41.236 c -4.284,0 -7.779,-3.479 -7.779,-7.771 0,0 0,-25.036 0,-25.036 z m 0,63.672 c 0,-4.3 3.495,-7.771 7.779,-7.771 h 24.313 c 4.268,0 7.755,3.463 7.755,7.771 v 25.052 c 0,4.276 -3.487,7.755 -7.755,7.755 H 41.236 c -4.284,0 -7.779,-3.479 -7.779,-7.755 0,0 0,-25.052 0,-25.052 z m 0,63.671 c 0,-4.276 3.495,-7.771 7.779,-7.771 h 24.313 c 4.268,0 7.755,3.495 7.755,7.771 v 25.077 c 0,4.243 -3.487,7.755 -7.755,7.755 H 41.236 c -4.284,0 -7.779,-3.503 -7.779,-7.755 0,-0.001 0,-25.077 0,-25.077 z"
       style="fill:#010002" /></g></svg>