<?xml version="1.0" encoding="UTF-8" standalone="no"?>
<svg
   xmlns:dc="http://purl.org/dc/elements/1.1/"
   xmlns:cc="http://creativecommons.org/ns#"
   xmlns:rdf="http://www.w3.org/1999/02/22-rdf-syntax-ns#"
   xmlns:svg="http://www.w3.org/2000/svg"
   xmlns="http://www.w3.org/2000/svg"
   xml:space="preserve"
   viewBox="0 0 12.201882 12.201553"
   height="12.201551"
   width="12.201881"
   y="0px"
   x="0px"
   id="Capa_1"
   version="1.1"><metadata
     id="metadata497"><rdf:RDF><cc:Work
         rdf:about=""><dc:format>image/svg+xml</dc:format><dc:type
           rdf:resource="http://purl.org/dc/dcmitype/StillImage" /><dc:title></dc:title></cc:Work></rdf:RDF></metadata><defs
     id="defs495" /><g
     transform="translate(-84.539169,-42.710655)"
     id="g462" /><g
     transform="translate(-84.539169,-42.710655)"
     id="g464" /><g
     transform="translate(-84.539169,-42.710655)"
     id="g466" /><g
     transform="translate(-84.539169,-42.710655)"
     id="g468" /><g
     transform="translate(-84.539169,-42.710655)"
     id="g470" /><g
     transform="translate(-84.539169,-42.710655)"
     id="g472" /><g
     transform="translate(-84.539169,-42.710655)"
     id="g474" /><g
     transform="translate(-84.539169,-42.710655)"
     id="g476" /><g
     transform="translate(-84.539169,-42.710655)"
     id="g478" /><g
     transform="translate(-84.539169,-42.710655)"
     id="g480" /><g
     transform="translate(-84.539169,-42.710655)"
     id="g482" /><g
     transform="translate(-84.539169,-42.710655)"
     id="g484" /><g
     transform="translate(-84.539169,-42.710655)"
     id="g486" /><g
     transform="translate(-84.539169,-42.710655)"
     id="g488" /><g
     transform="translate(-84.539169,-42.710655)"
     id="g490" /><g
     style="fill:#ffffff"
     id="g1901"
     transform="matrix(0.38129849,0,0,0.38129849,3.3014459e-4,0)"><g
       style="fill:#ffffff"
       id="Pencil"><g
         style="fill:#ffffff"
         id="g1898"><path
           style="fill:#ffffff"
           id="path1896"
           d="M 30.276,1.722 C 29.168,0.611 27.69,0 26.121,0 24.552,0 23.076,0.61 21.967,1.72 L 4.294,19.291 C 4.189,19.395 4.109,19.52 4.059,19.658 l -4,11 C -0.07,31.013 0.013,31.414 0.274,31.689 0.466,31.891 0.729,32 1,32 1.098,32 1.196,31.986 1.293,31.956 l 9.949,-3.052 c 0.156,-0.047 0.298,-0.133 0.414,-0.248 L 30.277,10.035 C 31.389,8.926 32,7.448 32,5.878 31.999,4.309 31.389,2.832 30.276,1.722 Z M 10.092,27.165 6.368,28.309 C 6.151,27.672 5.813,27.108 5.352,26.647 4.951,26.248 4.486,25.938 3.996,25.686 L 5.7,21 H 8 v 2 c 0,0.553 0.447,1 1,1 h 1.765 z m 14.72,-14.494 -12.184,12.184 0.35,-1.647 C 13.04,22.912 12.966,22.605 12.776,22.371 12.586,22.136 12.301,22 12,22 H 10 V 20 C 10,19.448 9.552,19 9,19 H 7.422 L 19.315,7.175 19.327,7.186 c 0.732,-0.733 1.707,-1.136 2.742,-1.136 1.035,0 2.011,0.403 2.742,1.136 0.731,0.733 1.138,1.707 1.138,2.743 0,1.036 -0.403,2.009 -1.137,2.742 z m 4.05,-4.05 -0.932,0.933 C 27.84,8.125 27.247,6.793 26.227,5.772 25.206,4.75 23.873,4.158 22.44,4.069 L 23.378,3.138 23.38,3.136 C 24.11,2.403 25.085,2 26.121,2 27.157,2 28.131,2.403 28.862,3.136 29.596,3.869 30,4.843 30,5.878 30,6.915 29.598,7.889 28.862,8.621 Z m -6.569,-0.328 -10,10 c -0.391,0.391 -0.391,1.023 0,1.414 C 12.487,19.902 12.744,20 13,20 c 0.256,0 0.511,-0.098 0.707,-0.293 l 10,-10 c 0.391,-0.391 0.391,-1.023 0,-1.414 -0.392,-0.391 -1.023,-0.391 -1.414,0 z" /></g></g></g></svg>