<?xml version="1.0" encoding="UTF-8" standalone="no"?>
<svg
   xmlns:dc="http://purl.org/dc/elements/1.1/"
   xmlns:cc="http://creativecommons.org/ns#"
   xmlns:rdf="http://www.w3.org/1999/02/22-rdf-syntax-ns#"
   xmlns:svg="http://www.w3.org/2000/svg"
   xmlns="http://www.w3.org/2000/svg"
   xml:space="preserve"
   viewBox="0 0 39.048512 40.830063"
   height="40.830063"
   width="39.048512"
   y="0px"
   x="0px"
   id="Capa_1"
   version="1.1"><metadata
     id="metadata497"><rdf:RDF><cc:Work
         rdf:about=""><dc:format>image/svg+xml</dc:format><dc:type
           rdf:resource="http://purl.org/dc/dcmitype/StillImage" /><dc:title></dc:title></cc:Work></rdf:RDF></metadata><defs
     id="defs495" /><g
     transform="matrix(1.2756604,0,0,1.2756604,1.4473228,4.4341094e-7)"
     id="g460"><path
       id="path458"
       d="m 16.872,20.75 h 8.087 v 1.725 h -8.087 z m 1.802,-1.58 h 6.285 V 17.445 H 18.674 Z M 26.282,0 H 9.323 C 7.793,0 6.551,1.42 6.551,3.166 v 20.18 L 8.202,20.925 V 3.166 c 0,-0.821 0.514,-1.515 1.121,-1.515 h 16.959 c 0.608,0 1.121,0.695 1.121,1.515 V 23.57 c 0,0.822 -0.513,1.516 -1.121,1.516 H 11.923 l -1.128,1.65 h 15.486 c 1.529,0 2.773,-1.42 2.773,-3.166 V 3.166 C 29.056,1.42 27.812,0 26.282,0 Z M 8.202,23.57 v -2.646 l 2.324,-3.405 0.77,-1.129 0.859,-1.26 c 0.058,-0.114 0.129,-0.225 0.225,-0.33 l 0.044,-0.062 0.012,0.008 c 0.077,-0.076 0.161,-0.152 0.26,-0.221 l 4.333,-2.998 c 0.3,-0.207 0.56,-0.306 0.763,-0.306 0.41,0 0.593,0.399 0.422,1.115 l -1.211,5.127 c -0.027,0.119 -0.076,0.216 -0.12,0.316 l 0.018,0.012 -0.051,0.074 c -0.054,0.106 -0.119,0.194 -0.189,0.276 l -0.887,1.301 -3.85,5.643 h -1.443 l 4.582,-6.715 c -0.058,-0.031 -0.115,-0.047 -0.172,-0.086 l -0.367,-0.252 c 0,0 -3.238,4.746 -4.812,7.053 H 9.323 C 8.716,25.086 8.202,24.391 8.202,23.57 Z m 5.088,-8.24 2.746,1.875 1.066,-4.512 z m 6.303,0.538 H 24.96 V 14.143 H 19.593 Z M 8.655,26.633 c 0.215,0.061 0.438,0.104 0.668,0.104 h 0.03 l 1.127,-1.65 H 9.71 C 9.365,25.592 8.721,26.538 8.655,26.633 Z M 24.959,4.232 H 14.704 v 1.725 h 10.255 z m -5.366,8.332 H 24.96 V 10.84 H 19.593 Z M 13.226,10.84 H 10.68 v 1.724 h 2.546 V 10.84 Z M 24.96,7.535 H 10.68 V 9.26 H 24.96 Z M 9.354,26.736 h 1.442 L 7.793,31.138 C 7.763,31.183 7.721,31.216 7.687,31.257 7.665,31.302 7.649,31.349 7.621,31.39 7.437,31.66 7.142,31.82 6.8,31.882 6.585,31.956 6.364,32.007 6.138,32.007 5.749,32.007 5.359,31.896 5.016,31.661 L 3.844,30.86 C 3.285,30.481 2.985,29.864 2.976,29.231 2.92,28.907 2.971,28.592 3.146,28.335 3.17,28.298 3.205,28.271 3.234,28.239 3.263,28.186 3.285,28.132 3.319,28.083 l 1.615,-2.367 1.618,-2.371 v 0.225 c 0,1.481 0.898,2.72 2.104,3.062 -0.012,0.018 -0.193,0.283 -0.193,0.283 l 0.525,0.357 z M 8.582,28.207 5.759,26.279 4.681,27.857 c 0.314,0.062 0.639,0.189 0.94,0.396 l 1.172,0.801 c 0.303,0.205 0.538,0.461 0.711,0.732 z M 13.226,4.232 H 10.68 v 1.725 h 2.546 V 4.232 Z" /></g><g
     transform="translate(5.3023444)"
     id="g462" /><g
     transform="translate(5.3023444)"
     id="g464" /><g
     transform="translate(5.3023444)"
     id="g466" /><g
     transform="translate(5.3023444)"
     id="g468" /><g
     transform="translate(5.3023444)"
     id="g470" /><g
     transform="translate(5.3023444)"
     id="g472" /><g
     transform="translate(5.3023444)"
     id="g474" /><g
     transform="translate(5.3023444)"
     id="g476" /><g
     transform="translate(5.3023444)"
     id="g478" /><g
     transform="translate(5.3023444)"
     id="g480" /><g
     transform="translate(5.3023444)"
     id="g482" /><g
     transform="translate(5.3023444)"
     id="g484" /><g
     transform="translate(5.3023444)"
     id="g486" /><g
     transform="translate(5.3023444)"
     id="g488" /><g
     transform="translate(5.3023444)"
     id="g490" /></svg>