<?xml version="1.0" encoding="UTF-8" standalone="no"?>
<svg
   xmlns:dc="http://purl.org/dc/elements/1.1/"
   xmlns:cc="http://creativecommons.org/ns#"
   xmlns:rdf="http://www.w3.org/1999/02/22-rdf-syntax-ns#"
   xmlns:svg="http://www.w3.org/2000/svg"
   xmlns="http://www.w3.org/2000/svg"
   height="43.631638"
   width="62.566021"
   xml:space="preserve"
   viewBox="0 0 62.566023 43.631639"
   y="0px"
   x="0px"
   id="Capa_1"
   version="1.1"><metadata
     id="metadata176"><rdf:RDF><cc:Work
         rdf:about=""><dc:format>image/svg+xml</dc:format><dc:type
           rdf:resource="http://purl.org/dc/dcmitype/StillImage" /><dc:title></dc:title></cc:Work></rdf:RDF></metadata><defs
     id="defs174" /><path
     style="stroke-width:0.29087758;fill:#000000;opacity:0.4"
     id="path139"
     d="M 8.2324172,0 C 3.6862915,0 0,3.686292 0,8.232417 v 27.166802 c 0,4.546127 3.6862915,8.23242 8.2324172,8.23242 H 54.333895 c 4.546127,0 8.232126,-3.686293 8.232126,-8.23242 V 8.232417 C 62.566021,3.686292 58.880022,0 54.333895,0 Z M 26.338092,32.879638 V 10.751999 l 14.543879,11.063819 z" /><g
     transform="translate(0,-32.547)"
     id="g141" /><g
     transform="translate(0,-32.547)"
     id="g143" /><g
     transform="translate(0,-32.547)"
     id="g145" /><g
     transform="translate(0,-32.547)"
     id="g147" /><g
     transform="translate(0,-32.547)"
     id="g149" /><g
     transform="translate(0,-32.547)"
     id="g151" /><g
     transform="translate(0,-32.547)"
     id="g153" /><g
     transform="translate(0,-32.547)"
     id="g155" /><g
     transform="translate(0,-32.547)"
     id="g157" /><g
     transform="translate(0,-32.547)"
     id="g159" /><g
     transform="translate(0,-32.547)"
     id="g161" /><g
     transform="translate(0,-32.547)"
     id="g163" /><g
     transform="translate(0,-32.547)"
     id="g165" /><g
     transform="translate(0,-32.547)"
     id="g167" /><g
     transform="translate(0,-32.547)"
     id="g169" /></svg>